<svg id="Outlined" xmlns="http://www.w3.org/2000/svg" viewBox="0 0 1275.07 198.12"><defs><style>.cls-1{fill:#fff;}.cls-2{fill:#005db8;}</style></defs><rect class="cls-1" x="499.98" y="0.06" width="775.31" height="198.19"/><rect class="cls-2" x="0.24" y="-0.81" width="500.88" height="199.21"/><path class="cls-1" d="M51.86,19.87h53.82l33,111.8h.46l22.64-111.8h40.65L168.28,181.11H114.69L81,69.53H80.5L58.1,181.11H17.44Z"/><path class="cls-1" d="M219.8,19.87H263l-12.7,61.67h51L314,19.87h43.2L323.75,181.11h-43.2L294.87,112H243.82L229.5,181.11H186.3Z"/><path class="cls-1" d="M473,56.36a80.42,80.42,0,0,0-14.9-5.19A85.27,85.27,0,0,0,437.39,49a121,121,0,0,0-12.12.58,35,35,0,0,0-9.82,2.31,16.35,16.35,0,0,0-6.58,4.74,12.09,12.09,0,0,0-2.43,7.85,11,11,0,0,0,4.62,9.24,57,57,0,0,0,11.55,6.47q6.93,3,15.13,6.24a67.06,67.06,0,0,1,15.13,8.31,42.56,42.56,0,0,1,11.55,12.94q4.62,7.84,4.62,20.09,0,16.64-7,27.49a51.81,51.81,0,0,1-18.37,17.21,80.82,80.82,0,0,1-25.29,8.9,157.05,157.05,0,0,1-28.07,2.54,139.15,139.15,0,0,1-25.87-2.54,231.59,231.59,0,0,1-24-5.78l10.17-32.8a40.76,40.76,0,0,0,7.85,3.81,70.68,70.68,0,0,0,9.94,2.89q5.31,1.15,11,1.85a90.63,90.63,0,0,0,11,.69,97.74,97.74,0,0,0,11.09-.69,47,47,0,0,0,11.2-2.66,21.8,21.8,0,0,0,8.66-5.78,14.35,14.35,0,0,0,3.47-10,13,13,0,0,0-4.62-10.4,45.79,45.79,0,0,0-11.55-6.93q-6.93-3-15.13-6.12a75.59,75.59,0,0,1-15.13-7.74,39.53,39.53,0,0,1-11.55-11.9q-4.62-7.27-4.62-18.59,0-15.48,6.24-25.87a48.26,48.26,0,0,1,16.4-16.63,71,71,0,0,1,23.1-8.9,129.43,129.43,0,0,1,26.1-2.65,233.27,233.27,0,0,1,28.18,1.61q13.17,1.62,21.25,5.55Z"/><path class="cls-2" d="M649.68,53.66a80.42,80.42,0,0,0-14.9-5.19,85.24,85.24,0,0,0-20.67-2.2,121.07,121.07,0,0,0-12.13.58,35,35,0,0,0-9.82,2.31,16.35,16.35,0,0,0-6.58,4.74,12.09,12.09,0,0,0-2.43,7.85A11,11,0,0,0,587.77,71a57,57,0,0,0,11.55,6.47q6.93,3,15.13,6.24A67.06,67.06,0,0,1,629.58,92,42.56,42.56,0,0,1,641.13,105q4.62,7.85,4.62,20.09,0,16.63-7,27.49a51.73,51.73,0,0,1-18.37,17.21,80.91,80.91,0,0,1-25.29,8.9A157.05,157.05,0,0,1,567,181.18a139.15,139.15,0,0,1-25.87-2.54,230.74,230.74,0,0,1-24-5.78l10.16-32.8a40.76,40.76,0,0,0,7.85,3.81,70.68,70.68,0,0,0,9.94,2.89q5.31,1.16,11,1.85a90.63,90.63,0,0,0,11,.69,97.74,97.74,0,0,0,11.09-.69,47,47,0,0,0,11.2-2.66,21.91,21.91,0,0,0,8.67-5.78q3.46-3.81,3.46-10a13,13,0,0,0-4.62-10.4,45.79,45.79,0,0,0-11.55-6.93q-6.93-3-15.13-6.12A75.59,75.59,0,0,1,555,98.94,39.53,39.53,0,0,1,543.42,87q-4.62-7.28-4.62-18.59Q538.8,53,545,42.58A48.26,48.26,0,0,1,561.44,26a71,71,0,0,1,23.1-8.9,129.43,129.43,0,0,1,26.1-2.65A233.27,233.27,0,0,1,638.82,16q13.17,1.62,21.25,5.55Z"/><path class="cls-2" d="M707.43,118.81,669.78,17.17h45.27l20.1,64.91,44.58-64.91h52.9L751.32,118.81,738.84,178.4H695Z"/><path class="cls-2" d="M837.71,17.17h53.82l33,111.8H925l22.63-111.8h40.66L954.13,178.4H900.54L866.81,66.83h-.46L844,178.4H803.29Z"/><path class="cls-2" d="M1027.13,49h-40.2l6.93-31.87h124.05L1111,49h-40.19L1043.3,178.4H999.64Z"/><path class="cls-2" d="M1122.76,17.17H1166l-12.71,61.67h51L1217,17.17h43.2l-33.5,161.23h-43.2l14.33-69.06h-51l-14.33,69.06h-43.19Z"/></svg>